<svg xmlns="http://www.w3.org/2000/svg" viewBox="0 0 25 25" enable-background="new 0 0 25 25"><path d="M.3 1.8L12 15c.3.3.8.3 1.1 0 3.9-4.4 7.7-8.8 11.6-13.2.6-.7-.4-1.8-1.1-1.1-1.8 2.1-3.7 4.2-5.5 6.3l-3.9 4.5c-.5.5-2.6 2.4-1.6 2.4s-1-1.7-1.4-2.2c-1.3-1.5-2.6-2.9-3.9-4.4-2-2.1-4-4.3-5.9-6.5-.6-.8-1.7.3-1.1 1zM.3 10.8L12 24c.3.3.8.3 1.1 0 3.9-4.4 7.7-8.8 11.6-13.2.6-.7-.4-1.8-1.1-1.1-1.8 2.1-3.7 4.2-5.5 6.3l-3.9 4.5c-.5.5-2.6 2.4-1.6 2.4s-1-1.7-1.4-2.2c-1.3-1.5-2.6-2.9-3.9-4.4-2-2.1-4-4.3-5.9-6.5-.6-.8-1.7.3-1.1 1z"/></svg>