<svg xmlns="http://www.w3.org/2000/svg" viewBox="0 0 520.1 504" enable-background="new 0 0 520.1 504"><title>Slim vectorobject</title><path d="M8.5 233.8l22.9 26 54.9 62.4 66.4 75.5 57.5 65.3c9.3 10.6 18.4 21.6 28.1 31.9.1.2.3.3.4.5 10.2 11.6 32.2 11.6 42.4 0l22.9-26 54.9-62.4 66.4-75.5 57.5-65.3c9.4-10.6 18.8-21.2 28.1-31.9.1-.2.3-.3.4-.5 5.3-6 8.8-13 8.8-21.2 0-7.4-3.3-16.1-8.8-21.2-11.4-10.4-31.4-12.6-42.4 0l-22.9 26-54.9 62.4-66.4 75.5-57.5 65.3c-9.3 10.6-19.1 21-28.1 31.9-.1.2-.3.3-.4.5h42.4l-22.9-26-54.9-62.4-66.4-75.6-57.5-65.3c-9.3-10.6-18.4-21.6-28.1-31.9-.1-.2-.3-.3-.4-.5-10.4-11.8-31.9-11.4-42.4 0-11.6 12.7-11.1 29.9 0 42.5zm0-182.7l22.9 26 54.9 62.3 66.4 75.5 57.5 65.3c9.3 10.6 18.4 21.6 28.1 31.9.1.2.3.3.4.5 10.2 11.6 32.2 11.6 42.4 0l22.9-26 54.9-62.4 66.4-75.5 57.5-65.3c9.4-10.6 18.8-21.2 28.1-31.9.1-.2.3-.3.4-.5 5.3-6 8.8-13 8.8-21.2 0-7.4-3.3-16.1-8.8-21.2C500-1.7 480-3.9 468.9 8.7l-22.9 26L391.2 97l-66.4 75.5-57.5 65.3c-9.3 10.6-19.1 21-28.1 31.9-.1.2-.3.3-.4.5h42.4l-22.9-26-54.9-62.3-66.4-75.5-57.6-65.3C70.1 30.5 61 19.5 51.3 9.2c-.1-.2-.3-.3-.4-.5C40.5-3.1 19-2.7 8.5 8.7c-11.6 12.6-11.1 29.8 0 42.4z"/></svg>