<?xml version="1.0" encoding="utf-8"?>
<!-- Generator: Adobe Illustrator 19.2.1, SVG Export Plug-In . SVG Version: 6.00 Build 0)  -->
<svg version="1.1" id="Laag_1" xmlns="http://www.w3.org/2000/svg" xmlns:xlink="http://www.w3.org/1999/xlink" x="0px" y="0px"
	 viewBox="0 0 25 25" style="enable-background:new 0 0 25 25;" xml:space="preserve">
<g>
	<g>
		<path d="M0.3,1.8C4.2,6.2,8.1,10.6,12,15c0.3,0.3,0.8,0.3,1.1,0c3.9-4.4,7.7-8.8,11.6-13.2c0.6-0.7-0.4-1.8-1.1-1.1
			c-1.8,2.1-3.7,4.2-5.5,6.3c-1.3,1.5-2.6,3-3.9,4.5c-0.5,0.5-2.6,2.4-1.6,2.4c1,0-1-1.7-1.4-2.2c-1.3-1.5-2.6-2.9-3.9-4.4
			C5.3,5.2,3.3,3,1.4,0.8C0.8,0-0.3,1.1,0.3,1.8L0.3,1.8z"/>
	</g>
</g>
<g>
	<g>
		<path d="M0.3,10.8C4.2,15.2,8.1,19.6,12,24c0.3,0.3,0.8,0.3,1.1,0c3.9-4.4,7.7-8.8,11.6-13.2c0.6-0.7-0.4-1.8-1.1-1.1
			c-1.8,2.1-3.7,4.2-5.5,6.3c-1.3,1.5-2.6,3-3.9,4.5c-0.5,0.5-2.6,2.4-1.6,2.4c1,0-1-1.7-1.4-2.2c-1.3-1.5-2.6-2.9-3.9-4.4
			C5.3,14.2,3.3,12,1.4,9.8C0.8,9-0.3,10.1,0.3,10.8L0.3,10.8z"/>
	</g>
</g>
</svg>
