<?xml version="1.0" encoding="utf-8"?>
<!-- Generator: Adobe Illustrator 19.2.1, SVG Export Plug-In . SVG Version: 6.00 Build 0)  -->
<svg version="1.1" id="Laag_1" xmlns="http://www.w3.org/2000/svg" xmlns:xlink="http://www.w3.org/1999/xlink" x="0px" y="0px"
	 viewBox="0 0 520.1 504" style="enable-background:new 0 0 520.1 504;" xml:space="preserve">
<title>Slim vectorobject</title>
<path d="M8.5,233.8l22.9,26l54.9,62.4l66.4,75.5l57.5,65.3c9.3,10.6,18.4,21.6,28.1,31.9c0.1,0.2,0.3,0.3,0.4,0.5
	c10.2,11.6,32.2,11.6,42.4,0l22.9-26l54.9-62.4l66.4-75.5l57.5-65.3c9.4-10.6,18.8-21.2,28.1-31.9c0.1-0.2,0.3-0.3,0.4-0.5
	c5.3-6,8.8-13,8.8-21.2c0-7.4-3.3-16.1-8.8-21.2c-11.4-10.4-31.4-12.6-42.4,0l-22.9,26l-54.9,62.4l-66.4,75.5l-57.5,65.3
	c-9.3,10.6-19.1,21-28.1,31.9c-0.1,0.2-0.3,0.3-0.4,0.5h42.4l-22.9-26l-54.9-62.4L136.9,289l-57.5-65.3
	c-9.3-10.6-18.4-21.6-28.1-31.9c-0.1-0.2-0.3-0.3-0.4-0.5c-10.4-11.8-31.9-11.4-42.4,0C-3.1,204-2.6,221.2,8.5,233.8L8.5,233.8z
	 M8.5,51.1l22.9,26l54.9,62.3l66.4,75.5l57.5,65.3c9.3,10.6,18.4,21.6,28.1,31.9c0.1,0.2,0.3,0.3,0.4,0.5
	c10.2,11.6,32.2,11.6,42.4,0l22.9-26l54.9-62.4l66.4-75.5l57.5-65.3c9.4-10.6,18.8-21.2,28.1-31.9c0.1-0.2,0.3-0.3,0.4-0.5
	c5.3-6,8.8-13,8.8-21.2c0-7.4-3.3-16.1-8.8-21.2C500-1.7,480-3.9,468.9,8.7l-22.9,26L391.2,97l-66.4,75.5l-57.5,65.3
	c-9.3,10.6-19.1,21-28.1,31.9c-0.1,0.2-0.3,0.3-0.4,0.5h42.4l-22.9-26l-54.9-62.3l-66.4-75.5L79.4,41.1C70.1,30.5,61,19.5,51.3,9.2
	c-0.1-0.2-0.3-0.3-0.4-0.5C40.5-3.1,19-2.7,8.5,8.7C-3.1,21.3-2.6,38.5,8.5,51.1z"/>
</svg>
